<svg width="80" height="79" viewBox="0 0 80 79" fill="none" xmlns="http://www.w3.org/2000/svg">
<path d="M36 3.93468V35.4121H4C2.93913 35.4121 1.92172 35.8266 1.17157 36.5645C0.421427 37.3024 0 38.3032 0 39.3468C0 40.3903 0.421427 41.3911 1.17157 42.129C1.92172 42.8669 2.93913 43.2814 4 43.2814H36V74.7589C36 75.8024 36.4214 76.8032 37.1716 77.5411C37.9217 78.279 38.9391 78.6935 40 78.6935C41.0609 78.6935 42.0783 78.279 42.8284 77.5411C43.5786 76.8032 44 75.8024 44 74.7589V3.93468C44 2.89114 43.5786 1.89034 42.8284 1.15244C42.0783 0.414545 41.0609 0 40 0C38.9391 0 37.9217 0.414545 37.1716 1.15244C36.4214 1.89034 36 2.89114 36 3.93468Z" fill="#F2F2F2"/>
<path d="M75.9996 35.4121H53.5996C51.3905 35.4121 49.5996 37.1737 49.5996 39.3468C49.5996 41.5198 51.3905 43.2814 53.5996 43.2814H75.9996C78.2087 43.2814 79.9996 41.5198 79.9996 39.3468C79.9996 37.1737 78.2087 35.4121 75.9996 35.4121Z" fill="#00C569"/>
</svg>
