<svg width="55" height="55" viewBox="0 0 55 55" fill="none" xmlns="http://www.w3.org/2000/svg">
<path opacity="0.9" d="M24.4444 42.7778H30.5556L31.4722 38.1944C32.0833 37.9398 32.6568 37.673 33.1925 37.3939C33.7262 37.1128 34.2731 36.7685 34.8333 36.3611L39.2639 37.7361L42.3194 32.5417L38.8056 29.4861C38.9074 28.7731 38.9583 28.1111 38.9583 27.5C38.9583 26.8889 38.9074 26.2269 38.8056 25.5139L42.3194 22.4583L39.2639 17.2639L34.8333 18.6389C34.2731 18.2315 33.7262 17.8872 33.1925 17.6061C32.6568 17.327 32.0833 17.0602 31.4722 16.8056L30.5556 12.2222H24.4444L23.5278 16.8056C22.9167 17.0602 22.3432 17.327 21.8075 17.6061C21.2738 17.8872 20.7269 18.2315 20.1667 18.6389L15.7361 17.2639L12.6806 22.4583L16.1944 25.5139C16.0926 26.2269 16.0417 26.8889 16.0417 27.5C16.0417 28.1111 16.0926 28.7731 16.1944 29.4861L12.6806 32.5417L15.7361 37.7361L20.1667 36.3611C20.7269 36.7685 21.2738 37.1128 21.8075 37.3939C22.3432 37.673 22.9167 37.9398 23.5278 38.1944L24.4444 42.7778ZM27.5 33.6111C25.8194 33.6111 24.3813 33.0122 23.1856 31.8144C21.9878 30.6187 21.3889 29.1806 21.3889 27.5C21.3889 25.8194 21.9878 24.3803 23.1856 23.1825C24.3813 21.9868 25.8194 21.3889 27.5 21.3889C29.1806 21.3889 30.6197 21.9868 31.8175 23.1825C33.0132 24.3803 33.6111 25.8194 33.6111 27.5C33.6111 29.1806 33.0132 30.6187 31.8175 31.8144C30.6197 33.0122 29.1806 33.6111 27.5 33.6111ZM6.11111 55C4.43056 55 2.99139 54.4021 1.79361 53.2064C0.59787 52.0086 0 50.5694 0 48.8889V6.11111C0 4.43056 0.59787 2.99139 1.79361 1.79361C2.99139 0.59787 4.43056 0 6.11111 0H48.8889C50.5694 0 52.0086 0.59787 53.2064 1.79361C54.4021 2.99139 55 4.43056 55 6.11111V48.8889C55 50.5694 54.4021 52.0086 53.2064 53.2064C52.0086 54.4021 50.5694 55 48.8889 55H6.11111Z" fill="black"/>
</svg>
