<svg width="717" height="717" viewBox="0 0 717 717" fill="none" xmlns="http://www.w3.org/2000/svg">
<path d="M360.292 609.45L462.465 508.174L360.292 406.897L322.65 444.54L361.189 483.079C344.459 483.676 328.171 480.987 312.325 475.012C296.479 469.037 282.295 459.776 269.771 447.229C257.821 435.279 248.703 421.536 242.418 406.001C236.132 390.466 233.001 374.931 233.025 359.396C233.025 349.239 234.375 339.081 237.076 328.924C239.777 318.766 243.505 308.908 248.261 299.348L208.826 259.912C198.669 274.85 191.2 290.684 186.42 307.414C181.64 324.144 179.25 341.172 179.25 358.5C179.25 381.205 183.731 403.611 192.694 425.719C201.656 447.826 214.801 467.544 232.129 484.871C249.456 502.199 268.875 515.2 290.385 523.876C311.895 532.552 334.002 537.176 356.707 537.75L322.65 571.808L360.292 609.45ZM508.174 457.087C518.331 442.15 525.8 426.316 530.58 409.586C535.36 392.856 537.75 375.827 537.75 358.5C537.75 335.795 533.412 313.233 524.736 290.815C516.061 268.397 503.071 248.536 485.767 231.232C468.44 213.905 448.866 201.059 427.045 192.694C405.224 184.329 382.974 180.146 360.292 180.146L394.35 145.193L356.707 107.55L254.535 208.826L356.707 310.102L394.35 272.46L354.915 233.025C371.047 233.025 387.479 236.168 404.209 242.454C420.939 248.739 435.279 257.845 447.229 269.771C459.179 281.721 468.297 295.464 474.582 310.999C480.868 326.534 483.999 342.069 483.975 357.604C483.975 367.761 482.625 377.919 479.924 388.076C477.223 398.234 473.495 408.092 468.739 417.652L508.174 457.087ZM358.5 717C308.907 717 262.303 707.583 218.685 688.75C175.068 669.917 137.126 644.38 104.861 612.139C72.5963 579.874 47.0591 541.932 28.2498 498.315C9.4405 454.697 0.0239 408.092 0 358.5C0 308.907 9.4166 262.303 28.2498 218.685C47.083 175.068 72.6202 137.126 104.861 104.861C137.126 72.5963 175.068 47.0591 218.685 28.2498C262.303 9.4405 308.907 0.0239 358.5 0C408.092 0 454.697 9.4166 498.315 28.2498C541.932 47.083 579.874 72.6202 612.139 104.861C644.404 137.126 669.953 175.068 688.786 218.685C707.619 262.303 717.024 308.907 717 358.5C717 408.092 707.583 454.697 688.75 498.315C669.917 541.932 644.38 579.874 612.139 612.139C579.874 644.404 541.932 669.953 498.315 688.786C454.697 707.619 408.092 717.024 358.5 717ZM358.5 645.3C438.565 645.3 506.381 617.516 561.949 561.949C617.516 506.381 645.3 438.565 645.3 358.5C645.3 278.435 617.516 210.619 561.949 155.051C506.381 99.4837 438.565 71.7 358.5 71.7C278.435 71.7 210.619 99.4837 155.051 155.051C99.4837 210.619 71.7 278.435 71.7 358.5C71.7 438.565 99.4837 506.381 155.051 561.949C210.619 617.516 278.435 645.3 358.5 645.3Z" fill="black"/>
</svg>
