<svg width="17" height="17" viewBox="0 0 17 17" fill="none" xmlns="http://www.w3.org/2000/svg">
<path fill-rule="evenodd" clip-rule="evenodd" d="M16.4492 8.58282C16.4492 7.98773 16.3958 7.41553 16.2966 6.86621H8.39258V10.1125H12.9092C12.7146 11.1616 12.1234 12.0504 11.2345 12.6455V14.7512H13.9468C15.5337 13.2902 16.4492 11.1387 16.4492 8.58282Z" fill="#4285F4"/>
<path fill-rule="evenodd" clip-rule="evenodd" d="M8.39228 16.7841C10.6582 16.7841 12.5579 16.0326 13.9465 14.7509L11.2342 12.6452C10.4827 13.1487 9.52143 13.4463 8.39228 13.4463C6.20645 13.4463 4.35632 11.97 3.69638 9.98633H0.892578V12.1607C2.2735 14.9035 5.11163 16.7841 8.39228 16.7841Z" fill="#01EF80"/>
<path fill-rule="evenodd" clip-rule="evenodd" d="M3.69644 9.98651C3.5286 9.48297 3.43323 8.9451 3.43323 8.39197C3.43323 7.83884 3.5286 7.30096 3.69644 6.79742V4.62305H0.89264C0.324249 5.75601 0 7.03775 0 8.39197C0 9.74619 0.324249 11.0279 0.89264 12.1609L3.69644 9.98651Z" fill="#FBBC05"/>
<path fill-rule="evenodd" clip-rule="evenodd" d="M8.39228 3.33786C9.62442 3.33786 10.7307 3.76129 11.6004 4.5929L14.0075 2.18582C12.5541 0.831604 10.6544 0 8.39228 0C5.11164 0 2.2735 1.88065 0.892578 4.62341L3.69638 6.79779C4.35632 4.81415 6.20645 3.33786 8.39228 3.33786Z" fill="#EA4335"/>
</svg>
