<?xml version="1.0" standalone="no"?>
<!DOCTYPE svg PUBLIC "-//W3C//DTD SVG 20010904//EN"
 "http://www.w3.org/TR/2001/REC-SVG-20010904/DTD/svg10.dtd">
<svg version="1.0" xmlns="http://www.w3.org/2000/svg"
 width="512.000000pt" height="512.000000pt" viewBox="0 0 512.000000 512.000000"
 preserveAspectRatio="xMidYMid meet">

<g transform="translate(0.000000,512.000000) scale(0.100000,-0.100000)"
fill="#000000" stroke="none">
<path d="M2380 5114 c-528 -50 -952 -209 -1350 -508 -303 -227 -548 -515 -733
-858 l-37 -68 214 0 214 0 86 123 c47 67 126 166 176 219 l90 96 108 -75 108
-75 -42 -117 c-23 -64 -46 -129 -49 -144 l-7 -27 154 0 154 0 23 70 c12 38 25
71 29 74 4 3 57 -15 117 -39 61 -24 158 -58 216 -74 l106 -31 603 0 603 0 106
31 c58 16 157 50 220 75 62 25 117 42 121 37 4 -4 17 -38 30 -75 l22 -68 149
0 c85 0 149 4 149 9 0 5 -20 67 -45 138 -25 70 -47 131 -48 134 -1 4 47 41
106 83 l108 75 66 -70 c87 -92 152 -173 224 -281 l60 -88 215 0 215 0 -43 78
c-141 259 -306 474 -509 664 -397 371 -877 601 -1409 674 -105 14 -435 26
-520 18z m230 -414 c33 -65 88 -246 124 -410 43 -192 72 -377 62 -387 -10 -10
-462 -10 -472 -1 -18 19 73 470 132 653 51 156 67 185 104 185 24 0 33 -7 50
-40z m-430 -75 c-47 -135 -101 -370 -130 -565 -18 -119 -10 -111 -93 -88 -66
19 -189 63 -279 102 l-37 16 30 53 c119 201 299 403 443 496 43 28 81 50 83
48 1 -2 -6 -30 -17 -62z m835 14 c89 -58 248 -212 322 -312 76 -104 148 -227
137 -236 -15 -14 -235 -98 -312 -119 l-72 -20 -5 21 c-2 12 -14 78 -25 146
-33 206 -90 435 -137 558 -9 23 13 14 92 -38z m-1481 -171 c-4 -7 -18 -26 -30
-43 -12 -16 -43 -66 -69 -110 -26 -44 -49 -81 -50 -83 -4 -5 -115 70 -115 77
0 3 42 33 93 67 150 99 187 119 171 92z m2108 -19 c73 -42 208 -133 208 -140
0 -7 -111 -82 -114 -77 -2 2 -20 32 -41 68 -21 36 -56 91 -77 123 -21 31 -37
57 -34 57 3 0 29 -14 58 -31z"/>
<path d="M180 3059 c0 -9 254 -890 281 -976 l11 -33 147 0 148 0 56 198 c69
244 82 297 98 395 6 43 14 76 16 73 3 -2 15 -58 28 -124 21 -107 80 -345 121
-489 l15 -53 148 0 148 0 152 495 c84 273 154 502 158 510 4 13 -18 15 -151
15 -153 0 -156 0 -161 -22 -63 -274 -135 -650 -135 -705 0 -50 -12 -14 -46
144 -19 87 -58 253 -87 368 l-53 210 -125 3 -126 3 -66 -258 c-36 -142 -75
-301 -87 -353 -11 -52 -23 -106 -26 -120 -4 -16 -16 30 -34 135 -15 88 -47
258 -71 378 l-42 217 -159 0 c-105 0 -158 -4 -158 -11z"/>
<path d="M1801 3038 c5 -18 71 -247 147 -508 l139 -475 149 -3 149 -2 49 172
c64 226 92 337 106 426 7 40 13 72 15 70 2 -2 17 -70 34 -153 17 -82 53 -231
80 -330 l48 -180 149 -3 149 -2 110 357 c60 197 130 427 156 511 l47 152 -156
-2 -156 -3 -47 -220 c-26 -121 -58 -283 -70 -360 -12 -77 -25 -143 -29 -148
-3 -4 -14 35 -24 85 -14 75 -102 440 -147 611 l-10 37 -123 0 c-120 0 -124 -1
-130 -22 -20 -73 -157 -623 -167 -673 l-13 -60 -8 50 c-13 70 -96 512 -116
615 l-17 85 -162 3 -162 2 10 -32z"/>
<path d="M3410 3068 c1 -2 67 -230 148 -508 l147 -505 150 0 149 0 38 130 c42
147 101 378 120 475 l13 65 28 -140 c15 -77 51 -228 80 -335 l52 -195 150 0
150 0 152 495 c84 272 152 501 153 508 0 10 -34 12 -152 10 l-153 -3 -47 -220
c-26 -121 -57 -276 -68 -345 -11 -69 -23 -136 -26 -150 -5 -17 -20 35 -49 165
-36 161 -87 369 -126 518 l-10 37 -124 0 c-109 0 -124 -2 -129 -17 -14 -45
-156 -615 -167 -671 -6 -34 -13 -61 -14 -60 -2 2 -15 73 -30 158 -14 85 -45
252 -68 370 l-42 215 -163 3 c-89 1 -162 1 -162 0z"/>
<path d="M309 1353 c271 -509 742 -938 1271 -1156 810 -333 1720 -236 2435
261 333 231 602 534 803 905 l43 77 -215 0 -215 0 -60 -88 c-70 -105 -133
-184 -222 -281 l-67 -71 -108 76 c-60 42 -108 79 -107 83 1 3 23 64 48 134 25
71 45 133 45 138 0 5 -64 9 -149 9 l-149 0 -22 -67 c-13 -38 -26 -72 -30 -76
-4 -5 -59 12 -121 37 -63 25 -162 59 -220 75 l-106 31 -603 0 -603 0 -116 -34
c-64 -19 -161 -53 -215 -75 -55 -22 -103 -38 -107 -35 -5 2 -18 36 -30 74
l-23 70 -154 0 -154 0 7 -27 c3 -15 26 -81 49 -146 l43 -118 -55 -36 c-31 -19
-79 -53 -108 -74 l-52 -38 -76 79 c-77 80 -209 251 -249 321 l-22 39 -216 0
-217 0 47 -87z m2488 -136 c18 -19 -73 -467 -132 -651 -50 -154 -68 -186 -105
-186 -24 0 -33 7 -49 38 -27 53 -86 239 -115 365 -25 104 -76 389 -76 420 0
11 13 17 43 20 65 7 426 2 434 -6z m-741 -195 c37 -225 93 -453 142 -580 8
-21 -50 11 -135 75 -132 99 -284 277 -392 461 l-31 53 23 8 c12 5 58 24 102
41 83 34 257 89 264 84 2 -2 14 -66 27 -142z m1294 61 c63 -25 119 -49 124
-54 5 -4 -9 -37 -32 -76 -97 -162 -202 -290 -328 -397 -72 -61 -181 -133 -189
-124 -2 2 11 51 29 108 40 123 78 288 106 461 11 68 23 134 25 146 l5 21 72
-20 c40 -11 125 -40 188 -65z m-1923 -265 c23 -40 58 -95 77 -122 19 -28 34
-52 32 -53 -9 -10 -267 157 -263 169 2 8 98 76 108 77 3 1 24 -32 46 -71z
m2368 36 c30 -20 55 -40 55 -43 -1 -11 -248 -171 -265 -171 -3 0 19 37 49 83
29 45 64 101 77 124 13 24 25 43 27 43 1 0 27 -16 57 -36z"/>
</g>
</svg>
